# xmcd
#
# Track frame offsets:
#	150
#	19945
#	38341
#	56232
#	73866
#	92706
#	112127
#	131881
#	149558
#	171521
#	188850
#
# Disc length: 2747 seconds
#
# Revision: 4
# Processed by: cddbd v1.5.2PL0 Copyright (c) Steve Scherf et al.
# Submitted via: EasyCDDAExtractor 15.3.0.1
#
DISCID=ac0ab90b
DTITLE=Enrique Iglesias - Quizas
DYEAR=2002
DGENRE=Latin
TTITLE0=Tres Palabras
TTITLE1=Para Que La Vida
TTITLE2=La Chica De Ayer
TTITLE3=Mentiroso
TTITLE4=Quizas
TTITLE5=Pienso En Ti
TTITLE6=Marta
TTITLE7=Sueltame Las Riendas
TTITLE8=Mamacita
TTITLE9=Mentiroso (Version Mariachi)
TTITLE10=No Apagues La Luz (Bonus Track)
EXTD=YEAR: 2002
EXTT0=
EXTT1=
EXTT2=
EXTT3=
EXTT4=
EXTT5=
EXTT6=
EXTT7=
EXTT8=
EXTT9=
EXTT10=
PLAYORDER=
